<svg width="21" height="20" viewBox="0 0 21 20" fill="none" xmlns="http://www.w3.org/2000/svg">
<path d="M14.4172 1.19168C14.4172 2.14168 14.0063 3.08334 13.4363 3.75834C12.8163 4.50834 11.778 5.06668 10.9472 5.06668C10.8472 5.06668 10.7555 5.05001 10.6972 5.04168C10.6888 4.99168 10.6638 4.85834 10.6638 4.71668C10.6638 3.75834 11.1405 2.82501 11.6688 2.23334C12.3388 1.45001 13.4538 0.866677 14.3755 0.833344C14.4005 0.941677 14.4172 1.06668 14.4172 1.19168ZM18.2213 14.2833C18.1963 14.3417 17.8355 15.6 16.9563 16.8833C16.1688 18 15.3397 19.1417 14.098 19.1417C12.8338 19.1417 12.5147 18.4083 11.073 18.4083C9.658 18.4083 9.15467 19.1667 8.01467 19.1667C6.86717 19.1667 6.07133 18.1167 5.158 16.8333C4.0855 15.3167 3.22217 12.975 3.22217 10.7667C3.22217 7.20001 5.553 5.30834 7.84883 5.30834C9.0555 5.30834 10.078 6.10001 10.8488 6.10001C11.5697 6.10001 12.7005 5.25834 14.1005 5.25834C14.6113 5.25834 16.5055 5.30834 17.7455 7.08334C17.6372 7.15834 15.7597 8.22501 15.7597 10.575C15.7597 13.2917 18.1372 14.2583 18.2213 14.2833Z" fill="#0F1419"/>
</svg>
