<svg width="19" height="20" viewBox="0 0 19 20" fill="none" xmlns="http://www.w3.org/2000/svg">
<path d="M1.36792 8.4325C1.36792 4.97937 4.16792 2.1825 7.62183 2.1825H11.0328C14.5406 2.1825 17.3835 5.02625 17.3835 8.53406C17.3835 10.8466 16.1281 12.9716 14.1054 14.0887L7.81323 17.5731V14.6903H7.76089C4.25308 14.7684 1.36792 11.9481 1.36792 8.4325ZM7.62183 3.745C5.03042 3.745 2.93042 5.84656 2.93042 8.4325C2.93042 11.0653 5.09448 13.1825 7.72573 13.1278L7.99995 13.12H9.37573V14.9169L13.35 12.7216C14.8742 11.8778 15.821 10.2762 15.821 8.53406C15.821 5.88562 13.6773 3.745 11.0328 3.745H7.62183Z" fill="#536471"/>
</svg>
