<svg width="19" height="18" viewBox="0 0 19 18" fill="none" xmlns="http://www.w3.org/2000/svg">
<g clip-path="url(#clip0_2_472)">
<path d="M9.31002 3.5625C10.6375 3.5625 11.8263 4.02 12.7638 4.9125L15.3325 2.34375C13.7725 0.8925 11.7363 0 9.31002 0C5.79252 0 2.75127 2.0175 1.27002 4.9575L4.26252 7.27875C4.97127 5.145 6.96252 3.5625 9.31002 3.5625Z" fill="#EA4335"/>
<path d="M17.9276 9.20625C17.9276 8.6175 17.8713 8.0475 17.7851 7.5H9.31006V10.8825H14.1626C13.9451 11.9925 13.3151 12.9375 12.3701 13.575L15.2688 15.825C16.9601 14.2575 17.9276 11.94 17.9276 9.20625Z" fill="#4285F4"/>
<path d="M4.25881 10.7212C4.07881 10.1775 3.97381 9.59999 3.97381 8.99999C3.97381 8.39999 4.07506 7.82249 4.25881 7.27874L1.26631 4.95749C0.655059 6.17249 0.310059 7.54499 0.310059 8.99999C0.310059 10.455 0.655059 11.8275 1.27006 13.0425L4.25881 10.7212Z" fill="#FBBC05"/>
<path d="M9.30986 18C11.7399 18 13.7836 17.2012 15.2686 15.8212L12.3699 13.5712C11.5636 14.115 10.5249 14.4337 9.30986 14.4337C6.96236 14.4337 4.97111 12.8512 4.25861 10.7175L1.26611 13.0387C2.75111 15.9825 5.79236 18 9.30986 18Z" fill="#34A853"/>
</g>
<defs>
<clipPath id="clip0_2_472">
<rect width="18" height="18" fill="white" transform="translate(0.310059)"/>
</clipPath>
</defs>
</svg>
