<svg width="19" height="20" viewBox="0 0 19 20" fill="none" xmlns="http://www.w3.org/2000/svg">
<path d="M13.0445 4.91686C12.0898 4.86999 10.9516 5.3153 10.0055 6.60436L9.37656 7.45593L8.74687 6.60436C7.8 5.3153 6.66093 4.86999 5.70625 4.91686C4.73515 4.97155 3.87109 5.52624 3.43281 6.40905C3.00156 7.28405 2.93828 8.58093 3.80703 10.1747C4.64609 11.7137 6.35156 13.5106 9.37656 15.3387C12.4 13.5106 14.1047 11.7137 14.9437 10.1747C15.8117 8.58093 15.7484 7.28405 15.3164 6.40905C14.8781 5.52624 14.0148 4.97155 13.0445 4.91686ZM16.3156 10.9247C15.2602 12.8622 13.1898 14.9247 9.76953 16.9169L9.37656 17.1512L8.98281 16.9169C5.56172 14.9247 3.4914 12.8622 2.43437 10.9247C1.37187 8.97155 1.33281 7.1278 2.03281 5.71374C2.72578 4.3153 4.10078 3.4403 5.62734 3.36218C6.91718 3.29186 8.25859 3.79968 9.37578 4.93249C10.4922 3.79968 11.8336 3.29186 13.1227 3.36218C14.6492 3.4403 16.0242 4.3153 16.7172 5.71374C17.4172 7.1278 17.3781 8.97155 16.3156 10.9247Z" fill="#536471"/>
</svg>
