<svg width="19" height="20" viewBox="0 0 19 20" fill="none" xmlns="http://www.w3.org/2000/svg">
<g clip-path="url(#clip0_24_1311)">
<path d="M3.5156 3.65125L6.9781 6.88562L5.91248 8.02624L4.29685 6.51843V13.12C4.29685 13.9794 4.99685 14.6825 5.85935 14.6825H10.1562V16.245H5.85935C4.13357 16.245 2.73435 14.8466 2.73435 13.12V6.51843L1.11873 8.02624L0.0531006 6.88562L3.5156 3.65125ZM12.8906 5.30749H8.59373V3.745H12.8906C14.6164 3.745 16.0156 5.14343 16.0156 6.87V13.4716L17.6312 11.9637L18.6968 13.1044L15.2344 16.3387L11.7719 13.1044L12.8375 11.9637L14.4531 13.4716V6.87C14.4531 6.01062 13.7531 5.30749 12.8906 5.30749Z" fill="#536471"/>
</g>
<defs>
<clipPath id="clip0_24_1311">
<rect width="18.75" height="18.75" fill="white" transform="translate(0 0.619995)"/>
</clipPath>
</defs>
</svg>
